<svg width="256" height="256" viewBox="0 0 256 256" fill="none" xmlns="http://www.w3.org/2000/svg">
<path d="M112 21.333V42.6663M144 21.333V42.6663M85.3333 69.333H64M85.3333 101.333H64M192 69.333H170.667M192 101.333H170.667M128 202.666C132.971 202.666 135.456 202.666 137.419 203.488C140.029 204.568 142.104 206.639 143.189 209.248C144 211.21 144 213.696 144 218.666C144 223.637 144 226.122 143.179 228.085C142.099 230.695 140.027 232.771 137.419 233.856C135.456 234.666 132.971 234.666 128 234.666C123.029 234.666 120.544 234.666 118.581 233.856C115.971 232.776 113.896 230.693 112.811 228.085C112 226.122 112 223.637 112 218.666C112 213.696 112 211.21 112.821 209.248C113.901 206.637 115.973 204.562 118.581 203.477C120.544 202.666 123.029 202.666 128 202.666ZM128 202.666V128M142.219 42.6663H113.781C100.373 42.6663 93.6533 42.6663 89.4933 46.8263C85.3333 51.0077 85.3333 57.7063 85.3333 71.125V99.5623C85.3333 112.97 85.3333 119.68 89.4933 123.85C93.664 128.01 100.373 128.01 113.781 128.01H142.219C155.627 128.01 162.336 128.01 166.507 123.85C170.667 119.68 170.667 112.97 170.667 99.5623V71.1143C170.667 57.7063 170.667 50.997 166.507 46.837C162.336 42.6663 155.627 42.6663 142.219 42.6663ZM38.5813 233.856C40.544 234.666 43.0293 234.666 48 234.666C52.9707 234.666 55.456 234.666 57.4187 233.856C60.0271 232.771 62.0986 230.695 63.1787 228.085C64 226.122 64 223.637 64 218.666C64 213.696 64 211.21 63.1893 209.248C62.1044 206.639 60.0291 204.568 57.4187 203.488C55.456 202.666 52.9707 202.666 48 202.666C43.0293 202.666 40.544 202.666 38.5813 203.477C35.9729 204.562 33.9014 206.637 32.8213 209.248C32 211.21 32 213.696 32 218.666C32 223.637 32 226.122 32.8107 228.085C33.8956 230.693 35.9709 232.776 38.5813 233.856Z" stroke="#E6EDF3" stroke-width="16" stroke-linecap="round" stroke-linejoin="round"/>
<path d="M48 202.666C48 187.69 48 180.192 51.5947 174.816C53.1515 172.485 55.1523 170.485 57.4827 168.928C62.8587 165.333 70.3573 165.333 85.3333 165.333H170.667C185.643 165.333 193.141 165.333 198.517 168.928C200.843 170.485 202.848 172.49 204.405 174.816C208 180.192 208 187.69 208 202.666M208 202.666C212.971 202.666 215.456 202.666 217.419 203.488C220.029 204.568 222.104 206.639 223.189 209.248C224 211.21 224 213.696 224 218.666C224 223.637 224 226.122 223.179 228.085C222.099 230.695 220.027 232.771 217.419 233.856C215.456 234.666 212.971 234.666 208 234.666C203.029 234.666 200.544 234.666 198.581 233.856C195.971 232.776 193.896 230.693 192.811 228.085C192 226.122 192 223.637 192 218.666C192 213.696 192 211.21 192.821 209.248C193.901 206.637 195.973 204.562 198.581 203.477C200.544 202.666 203.029 202.666 208 202.666Z" stroke="#E6EDF3" stroke-width="16" stroke-linecap="round" stroke-linejoin="round"/>
</svg>
