<svg width="256" height="256" viewBox="0 0 256 256" fill="none" xmlns="http://www.w3.org/2000/svg">
<path fill-rule="evenodd" clip-rule="evenodd" d="M213.333 149.334V202.667C213.333 211.154 209.962 219.293 203.961 225.294C197.959 231.295 189.82 234.667 181.333 234.667H74.6666C66.1796 234.667 58.0403 231.295 52.0391 225.294C46.038 219.293 42.6666 211.154 42.6666 202.667V149.334H213.333ZM128 32.0002C142.187 32.0002 155.563 35.4562 167.328 41.5895L173.792 35.1255C174.776 34.1068 175.953 33.2942 177.254 32.7351C178.556 32.1761 179.955 31.8819 181.372 31.8695C182.788 31.8572 184.192 32.1271 185.503 32.6635C186.814 33.1998 188.005 33.9918 189.007 34.9933C190.008 35.9949 190.8 37.1858 191.337 38.4967C191.873 39.8076 192.143 41.2122 192.131 42.6285C192.118 44.0448 191.824 45.4445 191.265 46.7459C190.706 48.0472 189.893 49.2242 188.875 50.2082L185.141 53.9415C194.028 61.9361 201.131 71.7127 205.989 82.6349C210.846 93.5571 213.349 105.38 213.333 117.334V128H42.6666V117.334C42.654 105.381 45.1588 93.5597 50.018 82.6394C54.8772 71.7191 61.9818 61.9446 70.8692 53.9522L67.1252 50.2189C65.1237 48.2188 63.9987 45.5055 63.9977 42.676C63.9967 39.8464 65.1198 37.1324 67.1199 35.1309C69.12 33.1294 71.8332 32.0044 74.6628 32.0034C77.4923 32.0024 80.2064 33.1255 82.2079 35.1255L88.6719 41.5895C100.822 35.285 114.311 31.996 128 32.0002ZM95.9999 74.6669C93.1709 74.6669 90.4578 75.7907 88.4574 77.7911C86.457 79.7915 85.3332 82.5046 85.3332 85.3335C85.3332 88.1625 86.457 90.8756 88.4574 92.876C90.4578 94.8764 93.1709 96.0002 95.9999 96.0002C98.8289 96.0002 101.542 94.8764 103.542 92.876C105.543 90.8756 106.667 88.1625 106.667 85.3335C106.667 82.5046 105.543 79.7915 103.542 77.7911C101.542 75.7907 98.8289 74.6669 95.9999 74.6669ZM160 74.6669C157.171 74.6669 154.458 75.7907 152.457 77.7911C150.457 79.7915 149.333 82.5046 149.333 85.3335C149.333 88.1625 150.457 90.8756 152.457 92.876C154.458 94.8764 157.171 96.0002 160 96.0002C162.829 96.0002 165.542 94.8764 167.542 92.876C169.543 90.8756 170.667 88.1625 170.667 85.3335C170.667 82.5046 169.543 79.7915 167.542 77.7911C165.542 75.7907 162.829 74.6669 160 74.6669Z" fill="#E6EDF3"/>
</svg>
