<svg width="256" height="256" viewBox="0 0 256 256" fill="none" xmlns="http://www.w3.org/2000/svg">
<g clip-path="url(#clip0_213_307)">
<path d="M154.517 33.5252C157.24 34.291 159.547 36.1066 160.931 38.5729C162.315 41.0392 162.663 43.9543 161.899 46.6772L114.645 215.083C114.267 216.431 113.627 217.693 112.761 218.794C111.896 219.896 110.821 220.816 109.6 221.502C108.379 222.189 107.034 222.628 105.643 222.795C104.252 222.962 102.842 222.853 101.493 222.475C100.144 222.096 98.883 221.456 97.7815 220.591C96.68 219.725 95.7598 218.651 95.0733 217.429C94.3869 216.208 93.9478 214.864 93.781 213.473C93.6142 212.082 93.723 210.671 94.1012 209.323L141.355 40.9172C141.733 39.567 142.373 38.3045 143.239 37.2021C144.106 36.0996 145.181 35.1788 146.403 34.4922C147.626 33.8057 148.972 33.3669 150.364 33.2009C151.756 33.035 153.168 33.1452 154.517 33.5252ZM76.8745 75.1999C78.8742 77.2002 79.9976 79.9128 79.9976 82.7412C79.9976 85.5696 78.8742 88.2822 76.8745 90.2825L39.1679 128L76.8745 165.707C77.8656 166.697 78.6519 167.873 79.1885 169.167C79.7251 170.461 80.0015 171.848 80.002 173.249C80.0025 174.65 79.7271 176.038 79.1914 177.333C78.6557 178.627 77.8702 179.803 76.8799 180.795C75.8895 181.786 74.7137 182.572 73.4195 183.108C72.1253 183.645 70.738 183.922 69.337 183.922C67.9359 183.923 66.5485 183.647 65.2539 183.111C63.9593 182.576 62.7829 181.79 61.7919 180.8L16.5332 135.541C14.5335 133.541 13.4102 130.828 13.4102 128C13.4102 125.171 14.5335 122.459 16.5332 120.459L61.7919 75.1999C63.7922 73.2002 66.5048 72.0768 69.3332 72.0768C72.1616 72.0768 74.8742 73.2002 76.8745 75.1999ZM179.125 90.2825C178.106 89.2986 177.294 88.1215 176.735 86.8202C176.176 85.5188 175.882 84.1191 175.869 82.7028C175.857 81.2865 176.127 79.8819 176.663 78.571C177.199 77.2601 177.991 76.0692 178.993 75.0676C179.995 74.0661 181.185 73.2741 182.496 72.7378C183.807 72.2014 185.212 71.9315 186.628 71.9439C188.044 71.9562 189.444 72.2504 190.746 72.8094C192.047 73.3685 193.224 74.1811 194.208 75.1999L239.467 120.459C241.466 122.459 242.59 125.171 242.59 128C242.59 130.828 241.466 133.541 239.467 135.541L194.208 180.8C192.206 182.8 189.492 183.923 186.663 183.922C183.833 183.921 181.12 182.796 179.12 180.795C177.12 178.793 175.997 176.079 175.998 173.249C175.999 170.42 177.124 167.707 179.125 165.707L216.832 128L179.125 90.2825Z" fill="#E6EDF3"/>
</g>
<defs>
<clipPath id="clip0_213_307">
<rect width="256" height="256" fill="white"/>
</clipPath>
</defs>
</svg>
