<svg width="224" height="256" viewBox="0 0 224 256" fill="none" xmlns="http://www.w3.org/2000/svg">
<g clip-path="url(#clip0_211_299)">
<path d="M220.853 32.7465C220.104 31.959 219.202 31.3325 218.203 30.9052C217.203 30.4779 216.127 30.2587 215.04 30.2612H214.976C212.309 30.8158 209.909 31.7509 207.776 33.0665L207.872 33.0132C204.259 34.8336 200.434 36.8745 196.395 39.1358C192.005 41.5498 187.398 43.5462 182.635 45.0985L182.048 45.2692C177.126 47.0136 171.952 47.9431 166.731 48.0212H166.688L166.155 48.0318C162.176 48.0318 158.411 47.1145 155.061 45.4718L155.211 45.5358C146.497 41.2619 137.502 37.5876 128.288 34.5385L126.645 34.0585C118.405 31.5182 109.828 30.2415 101.205 30.2718H100.512H100.544C81.0356 31.1423 62.0104 36.6178 45.0239 46.2505L45.6319 45.9305C41.3652 48.0425 38.3572 49.6745 36.3946 50.8798L34.4426 36.5758C37.762 33.6995 40.0879 29.848 41.0883 25.5711C42.0886 21.2943 41.7123 16.8107 40.013 12.7605C38.3137 8.71026 35.3783 5.30036 31.6259 3.01758C27.8734 0.734789 23.4957 -0.304197 19.1176 0.0489334C14.7396 0.402064 10.585 2.12926 7.24693 4.98396C3.90885 7.83866 1.55794 11.6749 0.529779 15.9452C-0.498384 20.2154 -0.151238 24.7013 1.52166 28.7625C3.19456 32.8238 6.1077 36.2527 9.84522 38.5598L9.93056 38.6132L38.0906 245.387C38.9332 251.413 44.0532 256 50.2399 256.011C50.8372 256.011 51.4346 255.971 52.0106 255.893L51.9466 255.904C53.5558 255.693 55.1073 255.165 56.5117 254.351C57.9161 253.538 59.1455 252.454 60.1292 251.163C61.1128 249.872 61.8312 248.399 62.2429 246.829C62.6546 245.259 62.7514 243.623 62.5279 242.016L62.5386 242.08L51.2106 158.976C67.4767 149.904 85.5952 144.654 104.192 143.626L104.523 143.616H104.619C111.221 143.616 117.589 144.661 123.541 146.603L123.104 146.485C128.479 148.091 133.67 150.257 138.592 152.949L138.176 152.736C142.165 154.987 146.837 157.098 151.701 158.805L152.32 158.997C157.109 160.789 162.645 161.834 168.416 161.877H168.437C185.643 160.789 202.32 155.504 217.013 146.485L216.555 146.752C218.517 145.792 220.224 144.594 221.675 143.157C222.852 141.751 223.433 139.941 223.296 138.112V138.133V38.5598C223.3 37.4787 223.084 36.4081 222.662 35.4126C222.241 34.4171 221.622 33.5174 220.843 32.7678L220.853 32.7465Z" fill="#E6EDF3"/>
</g>
<defs>
<clipPath id="clip0_211_299">
<rect width="224" height="256" fill="white"/>
</clipPath>
</defs>
</svg>
