<svg width="128" height="128" viewBox="0 0 128 128" fill="none" xmlns="http://www.w3.org/2000/svg">
<g clip-path="url(#clip0_134_65)">
<path d="M21.8933 21.8933C21.8933 21.8933 48.8427 8.42663 62.3147 1.6853C64.7682 0.481034 67.4821 -0.096183 70.2133 0.00529861C74.2987 0.255965 79.1573 4.20797 79.1573 4.20797L128 53.056V105.264H105.264V128H52.208L4.208 80C1.616 77.3333 0 73.5733 0 69.8933C0 68.192 0.96 65.5306 1.68533 64L21.8933 21.8933ZM25.5147 25.5146V88.3786C25.5253 91.2746 25.6267 93.84 28.1707 96.4213L54.4213 122.667H99.9307V99.9306L25.5147 25.5146ZM89.808 21.8986C85.0133 17.12 80.16 12.4053 75.1947 7.80263C73.584 6.37863 72.1707 5.30663 69.488 5.33863C67.5147 5.4133 64.848 6.37863 64.848 6.37863L33.8187 21.8933L89.808 21.8986Z" fill="#E6EDF3"/>
</g>
<defs>
<clipPath id="clip0_134_65">
<rect width="128" height="128" fill="white"/>
</clipPath>
</defs>
</svg>
