<svg width="75" height="75" viewBox="0 0 75 75" fill="none" xmlns="http://www.w3.org/2000/svg">
<g clip-path="url(#clip0_191_270)">
<path d="M63.4376 14.0938C58.505 11.8641 53.3061 10.2782 47.9689 9.375C47.2356 10.671 46.5742 12.0064 45.9876 13.375C40.3003 12.5264 34.5186 12.5264 28.8314 13.375C28.2418 12.0125 27.5814 10.6792 26.8501 9.375C21.5064 10.2781 16.2876 11.8656 11.3501 14.0938C1.56887 28.4375 -1.08738 42.4063 0.225116 56.2813C5.97512 60.4688 12.3814 63.6563 19.1939 65.7188C20.7356 63.6751 22.095 61.5001 23.2564 59.2188C21.0376 58.4 18.8814 57.3875 16.8501 56.1938C17.3876 55.8063 17.9105 55.4167 18.4189 55.025C24.3616 57.7851 30.8352 59.2151 37.3876 59.2151C43.9401 59.2151 50.4136 57.7851 56.3564 55.025C56.8709 55.4437 57.3939 55.8333 57.9251 56.1938C55.8821 57.3889 53.7385 58.4031 51.5189 59.225C52.6845 61.4937 54.0439 63.6625 55.5814 65.6937C62.4251 63.6562 68.8314 60.475 74.5814 56.2875C76.1376 40.3187 71.922 26.4438 63.4251 14.1L63.4376 14.0938ZM25.0001 47.8438C21.3126 47.8438 18.2501 44.5312 18.2501 40.4375C18.2501 36.3437 21.2001 33 25.0001 33C28.7814 33 31.8126 36.3437 31.7501 40.4375C31.6876 44.5312 28.772 47.8438 25.0001 47.8438ZM49.9064 47.8438C46.1876 47.8438 43.1564 44.5312 43.1564 40.4375C43.1564 36.3437 46.1064 33 49.9064 33C53.7189 33 56.7189 36.3437 56.6564 40.4375C56.5939 44.5312 53.6845 47.8438 49.9064 47.8438Z" fill="#E6EDF3"/>
</g>
<defs>
<clipPath id="clip0_191_270">
<rect width="75" height="75" fill="white"/>
</clipPath>
</defs>
</svg>
