<svg width="75" height="75" viewBox="0 0 75 75" fill="none" xmlns="http://www.w3.org/2000/svg">
<g clip-path="url(#clip0_191_287)">
<path d="M67.3542 12.5C67.0702 12.4707 66.784 12.4707 66.5 12.5H8.16667C7.7928 12.5057 7.42141 12.5618 7.0625 12.6666L37.1667 42.6458L67.3542 12.5Z" fill="#E6EDF3"/>
<path d="M70.4377 15.396L40.1043 45.6043C39.3237 46.3804 38.2676 46.816 37.1668 46.816C36.0661 46.816 35.01 46.3804 34.2293 45.6043L4.16683 15.6252C4.07441 15.9648 4.02541 16.3148 4.021 16.6668V58.3335C4.021 59.4386 4.45998 60.4984 5.24138 61.2798C6.02279 62.0612 7.08259 62.5002 8.18766 62.5002H66.521C67.6261 62.5002 68.6859 62.0612 69.4673 61.2798C70.2487 60.4984 70.6877 59.4386 70.6877 58.3335V16.6668C70.6711 16.2328 70.5867 15.804 70.4377 15.396ZM11.0418 58.3335H8.146V55.3543L23.2918 40.3335L26.2293 43.271L11.0418 58.3335ZM66.4793 58.3335H63.5627L48.3752 43.271L51.3127 40.3335L66.4585 55.3543L66.4793 58.3335Z" fill="#E6EDF3"/>
</g>
<defs>
<clipPath id="clip0_191_287">
<rect width="75" height="75" fill="white"/>
</clipPath>
</defs>
</svg>
