<svg width="128" height="128" viewBox="0 0 128 128" fill="none" xmlns="http://www.w3.org/2000/svg">
<g clip-path="url(#clip0_143_32)">
<path d="M128 99.136C126.137 99.8394 124.081 99.8372 122.22 99.1299C120.358 98.4226 118.819 97.059 117.893 95.296L99.4934 69.8506L96.8267 66.2933L75.4774 95.328C74.608 97.0178 73.1529 98.3332 71.3841 99.0282C69.6153 99.7231 67.654 99.7501 65.8667 99.104L93.3761 62.1973L67.7867 28.8586C69.6267 28.1956 71.639 28.1868 73.4847 28.8337C75.3304 29.4807 76.8968 30.7439 77.9201 32.4106L96.9921 58.1706L116.171 32.5173C117.047 30.8575 118.502 29.5775 120.261 28.9206C122.019 28.2638 123.957 28.2759 125.707 28.9546L115.776 42.1333L102.325 59.6426C101.952 59.9758 101.653 60.3842 101.448 60.841C101.244 61.2978 101.138 61.7927 101.138 62.2933C101.138 62.7939 101.244 63.2888 101.448 63.7456C101.653 64.2024 101.952 64.6108 102.325 64.944L127.947 99.1413L128 99.136ZM0.0107366 61.7386L2.25074 50.672C8.4054 28.7893 33.4934 19.6853 50.7521 33.232C60.8587 41.1733 63.3814 52.416 62.8854 65.088H5.95207C5.0294 87.7173 21.3601 101.381 42.2401 94.4C45.6244 93.1807 48.6537 91.1415 51.0569 88.4647C53.4601 85.7879 55.1621 82.557 56.0107 79.0613C57.1147 75.5093 58.9334 74.9013 62.2721 75.9253C61.7146 80.2577 60.1825 84.4073 57.791 88.0626C55.3994 91.7178 52.2106 94.7835 48.4641 97.0293C42.2747 100.417 35.1726 101.76 28.1737 100.866C21.1749 99.972 14.6382 96.8874 9.49874 92.0533C4.4179 86.3316 1.3464 79.1061 0.75207 71.4773C0.75207 70.224 0.325403 69.0506 0.0374032 67.9253C0.01139 65.865 -0.00105468 63.8045 6.99013e-05 61.744L0.0107366 61.7386ZM6.0214 60.2133H57.5094C57.1894 43.808 46.8374 32.1706 33.0294 32.064C17.6587 31.8506 6.6614 43.232 5.98407 60.1386L6.0214 60.2133Z" fill="#E6EDF3"/>
</g>
<defs>
<clipPath id="clip0_143_32">
<rect width="128" height="128" fill="white"/>
</clipPath>
</defs>
</svg>
