<svg width="128" height="128" viewBox="0 0 128 128" fill="none" xmlns="http://www.w3.org/2000/svg">
<path d="M34.8719 5.62462e-05C34.769 0.00147725 34.6664 0.0108384 34.5649 0.0280562C34.1629 0.0940548 33.7922 0.285538 33.5057 0.575092C33.2192 0.864646 33.0316 1.23742 32.9699 1.64006L17.9109 98.0001L27.8219 79.1331L52.8879 31.4091L36.5999 1.02806L36.5979 1.02606C36.4312 0.713865 36.1822 0.453234 35.878 0.272386C35.5737 0.0915371 35.2258 -0.00263842 34.8719 5.62462e-05ZM63.2589 18.2941C62.5369 18.2941 61.8789 18.6901 61.5429 19.3291L54.0839 33.5321L54.0759 33.5181L19.9759 98.4401L30.7259 87.673L65.1859 53.1531L76.6889 41.6291L64.9769 19.3291C64.812 19.0164 64.5648 18.7547 64.262 18.5723C63.9593 18.3899 63.6124 18.2937 63.2589 18.2941ZM95.4339 26.5951C95.259 26.5902 95.0841 26.6084 94.9139 26.6491C94.5682 26.7334 94.2523 26.9112 94.0009 27.1631L79.1799 42.0061L66.6229 54.5891L17.6289 103.667L59.2419 127.004H59.2439C60.4135 127.657 61.7308 128 63.0704 128C64.41 128 65.7273 127.657 66.8969 127.004L109.429 103.357L97.2839 28.2041V28.2121C97.2243 27.861 97.0693 27.5331 96.8358 27.2643C96.6022 26.9955 96.2992 26.7961 95.9599 26.6881C95.7895 26.6337 95.6126 26.6024 95.4339 26.5951ZM110.372 103.995L109.772 104.044L110.021 104.19L110.372 103.995Z" fill="#E6EDF3"/>
</svg>
