<svg width="128" height="128" viewBox="0 0 128 128" fill="none" xmlns="http://www.w3.org/2000/svg">
<path d="M125.575 58.2949L69.6869 2.41488C68.9217 1.64929 68.0131 1.04198 67.0131 0.627622C66.0132 0.213269 64.9413 0 63.8589 0C62.7764 0 61.7046 0.213269 60.7046 0.627622C59.7046 1.04198 58.7961 1.64929 58.0309 2.41488L46.4309 14.0149L61.1509 28.7349C62.8869 28.1422 64.7546 28.0494 66.5408 28.4673C68.327 28.8851 69.9598 29.7967 71.2528 31.098C72.5457 32.3993 73.4468 34.0379 73.8531 35.8268C74.2595 37.6156 74.1548 39.4827 73.5509 41.2149L87.7349 55.4069C89.8334 54.668 92.1209 54.6658 94.2209 55.4005C96.3208 56.1353 98.1079 57.5633 99.288 59.4493C100.468 61.3353 100.971 63.567 100.713 65.7768C100.455 67.9866 99.4531 70.0428 97.8709 71.6069C96.2692 73.2184 94.1576 74.2239 91.8969 74.4515C89.6362 74.6791 87.3666 74.1148 85.4758 72.8548C83.5849 71.5949 82.1902 69.7176 81.5298 67.5436C80.8694 65.3695 80.9843 63.0336 81.8549 60.9349L68.6309 47.7029V82.5269C70.6409 83.5219 72.2493 85.1757 73.1878 87.2127C74.1263 89.2498 74.3384 91.5469 73.7885 93.7213C73.2387 95.8957 71.9603 97.816 70.1663 99.1621C68.3723 100.508 66.1712 101.199 63.9297 101.119C61.6883 101.039 59.5421 100.193 57.8487 98.7222C56.1553 97.2515 55.0171 95.2449 54.6238 93.0369C54.2305 90.8288 54.6058 88.5526 55.6873 86.5877C56.7687 84.6228 58.491 83.0879 60.5669 82.2389V47.0949C59.3692 46.6041 58.2805 45.8811 57.3635 44.9676C56.4466 44.0541 55.7195 42.9682 55.2242 41.7723C54.7289 40.5765 54.4752 39.2945 54.4777 38.0001C54.4803 36.7058 54.7389 35.4248 55.2389 34.2309L40.7349 19.7189L2.41488 58.0389C1.64929 58.8041 1.04198 59.7126 0.627622 60.7126C0.213269 61.7126 0 62.7844 0 63.8669C0 64.9493 0.213269 66.0211 0.627622 67.0211C1.04198 68.0211 1.64929 68.9297 2.41488 69.6949L58.3029 125.583C59.0681 126.348 59.9766 126.956 60.9766 127.37C61.9766 127.784 63.0484 127.998 64.1309 127.998C65.2133 127.998 66.2851 127.784 67.2851 127.37C68.2851 126.956 69.1937 126.348 69.9589 125.583L125.583 69.9589C126.348 69.1937 126.956 68.2851 127.37 67.2851C127.784 66.2851 127.998 65.2133 127.998 64.1309C127.998 63.0484 127.784 61.9766 127.37 60.9766C126.956 59.9766 126.348 59.0681 125.583 58.3029" fill="#E6EDF3"/>
</svg>
