<svg width="75" height="75" viewBox="0 0 75 75" fill="none" xmlns="http://www.w3.org/2000/svg">
<path d="M67.9688 1.75759H7.03125C5.64862 1.74352 4.31688 2.27852 3.32824 3.24519C2.33959 4.21186 1.77481 5.53125 1.75781 6.91384V68.0974C1.77789 69.478 2.34402 70.7944 3.33233 71.7585C4.32063 72.7227 5.65062 73.2561 7.03125 73.242H67.9688C69.3515 73.2529 70.6823 72.7161 71.6704 71.7489C72.6586 70.7816 73.2236 69.4625 73.2422 68.0799V6.89627C73.2175 5.51772 72.6498 4.20463 71.6623 3.24239C70.6748 2.28016 69.3475 1.74657 67.9688 1.75759ZM22.9512 62.6951H12.3398V28.5525H22.9512V62.6951ZM17.6777 23.9002C16.4607 23.9013 15.2706 23.5415 14.2581 22.8662C13.2456 22.1908 12.4561 21.2304 11.9895 20.1063C11.523 18.9822 11.4003 17.745 11.637 16.5512C11.8738 15.3573 12.4593 14.2605 13.3194 13.3995C14.1796 12.5385 15.2759 11.952 16.4695 11.7141C17.6631 11.4763 18.9004 11.5978 20.0249 12.0632C21.1495 12.5287 22.1107 13.3173 22.787 14.3292C23.4632 15.341 23.8242 16.5308 23.8242 17.7478C23.8227 18.5568 23.6616 19.3574 23.3503 20.1041C23.039 20.8507 22.5834 21.5286 22.0098 22.0989C21.4362 22.6693 20.7557 23.1209 20.0073 23.428C19.2589 23.7351 18.4574 23.8915 17.6484 23.8885L17.6777 23.9002ZM62.6953 62.6951H52.084V46.0838C52.084 42.1287 52.0137 37.0369 46.5703 37.0369C41.127 37.0369 40.2012 41.3494 40.2012 45.826V62.6951H29.6074V28.5525H39.7793V33.24H39.9199C41.3379 30.5564 44.7949 27.7263 49.957 27.7263C60.7031 27.7029 62.6953 34.7752 62.6953 43.9451V62.6951Z" fill="#E6EDF3"/>
</svg>
