<svg width="128" height="128" viewBox="0 0 128 128" fill="none" xmlns="http://www.w3.org/2000/svg">
<path d="M89.6267 5.3335C84.9324 5.37743 80.2645 6.04094 75.744 7.30683L75.424 7.40283C72.5777 6.91478 69.6981 6.64555 66.8107 6.5975C60.8747 6.49616 55.7707 7.8935 51.664 10.2242C47.6107 8.85883 39.2053 6.50683 30.3467 6.97616C24.176 7.3015 17.4453 9.12016 12.4587 14.2295C7.48266 19.3388 4.85333 27.2428 5.40799 38.0002C5.55733 40.9708 6.42666 45.8082 7.87733 52.0802C9.31733 58.3468 11.3547 65.6802 13.888 72.3735C16.4213 79.0668 19.2 85.0882 23.5413 89.1735C25.7067 91.2215 28.688 92.9442 32.2027 92.8002C34.672 92.7042 36.9067 91.6535 38.832 90.1015C39.7707 91.3015 40.7733 91.8242 41.6853 92.3095C42.832 92.9175 43.952 93.3335 45.1093 93.6108C48.3142 94.4327 51.6523 94.5978 54.9227 94.0962C56.3467 93.8668 57.8453 93.4188 59.3387 92.7788C59.392 94.3895 59.456 95.9682 59.5253 97.5682C59.728 102.635 59.8613 107.312 61.4293 111.413C61.68 112.085 62.368 115.536 65.0933 118.581C67.8133 121.632 73.1467 123.531 79.216 122.272C83.4987 121.382 88.9493 119.776 92.5653 114.784C96.1387 109.845 97.7547 102.763 98.0747 91.2695C98.1547 90.6508 98.2507 90.1228 98.352 89.6268L99.2053 89.7015H99.3013C103.872 89.9042 108.832 89.2748 112.976 87.4082C116.645 85.7548 119.419 84.0908 121.44 81.1308C121.947 80.4002 122.501 79.5148 122.651 77.9842C122.8 76.4642 121.904 74.0748 120.405 72.9762C117.403 70.7682 115.52 71.6055 113.499 72.0162C111.508 72.4428 109.488 72.6793 107.44 72.7255C113.269 63.2108 117.445 53.0988 119.829 44.1495C121.237 38.8695 122.032 34.0002 122.096 29.7442C122.16 25.4882 121.803 21.7175 119.173 18.4535C110.955 8.26683 99.3973 5.45083 90.4587 5.35483C90.1813 5.34772 89.904 5.34594 89.6267 5.3495V5.3335ZM89.392 8.46416C97.8453 8.38416 108.651 10.6882 116.405 20.3042C118.149 22.4642 118.667 25.6215 118.608 29.5148C118.544 33.4028 117.803 38.0535 116.448 43.1522C113.819 53.0295 108.848 64.5388 101.845 74.8748C102.094 75.0472 102.363 75.1887 102.645 75.2962C104.107 75.8828 107.435 76.3842 114.085 75.0615C115.755 74.7148 116.981 74.4855 118.251 75.4242C118.554 75.6763 118.796 75.9952 118.956 76.356C119.116 76.7168 119.19 77.1098 119.173 77.5042C119.103 78.0998 118.877 78.6664 118.517 79.1468C117.237 81.0188 114.699 82.7948 111.445 84.2562C108.571 85.5575 104.443 86.2348 100.784 86.2775C98.9493 86.2935 97.2587 86.1548 95.824 85.7228L95.728 85.6908C95.1733 90.8695 93.8987 101.104 93.072 105.771C92.4053 109.536 91.2427 112.528 89.0187 114.768C86.8 117.008 83.664 118.357 79.44 119.238C74.208 120.326 70.3947 119.152 67.936 117.142C65.4827 115.142 64.3573 112.48 63.68 110.848C63.216 109.728 62.976 108.272 62.7413 106.326C62.4833 103.995 62.3107 101.655 62.224 99.3122C62.0709 95.2038 62.0211 91.0923 62.0747 86.9815C59.888 88.9175 57.168 90.2082 54.2507 90.6935C50.784 91.2642 47.68 90.7042 45.8293 90.2562C44.922 90.0325 44.0447 89.7013 43.216 89.2695C42.352 88.8268 41.536 88.3255 40.992 87.3335C40.6715 86.7673 40.569 86.1033 40.704 85.4668C40.8787 84.8202 41.2656 84.2511 41.8027 83.8508C42.8053 83.0615 44.1227 82.6242 46.112 82.2188C49.7387 81.4988 51.0027 81.0028 51.7707 80.4108C52.4267 79.9042 53.168 78.8802 54.48 77.3708L54.464 77.1735C52.1258 77.1049 49.8336 76.5067 47.76 75.4242C47.008 76.1922 43.1467 80.1548 38.4373 85.6482C36.4587 87.9468 34.272 89.2642 31.9627 89.3602C29.6533 89.4562 27.568 88.3255 25.7973 86.6615C22.2507 83.3228 19.424 77.5788 16.96 71.0882C14.5067 64.5922 12.5013 57.3602 11.0827 51.2002C9.65333 45.0402 8.81066 40.0748 8.69333 37.6802C8.15999 27.4988 10.6133 20.6402 14.8267 16.3148C19.04 11.9895 24.8107 10.3468 30.4427 10.0375C40.544 9.47216 50.1387 12.8908 52.08 13.6268C55.8187 11.1628 60.6347 9.62683 66.656 9.72283C69.51 9.76252 72.3506 10.1203 75.1253 10.7895L75.2267 10.7468C76.4498 10.3308 77.6907 9.98239 78.9493 9.7015C82.3759 8.92808 85.8742 8.51693 89.3867 8.47483L89.392 8.46416ZM90.1547 11.7388H89.424C86.5384 11.7777 83.6631 12.092 80.8373 12.6775C86.4466 15.1206 91.3749 18.8956 95.1947 23.6748C97.5087 26.534 99.4281 29.6912 100.901 33.0615C101.456 34.3522 101.829 35.4455 102.037 36.2882C102.144 36.7148 102.219 37.0722 102.24 37.4455C102.26 37.6818 102.24 37.9197 102.181 38.1495L102.149 38.2135C102.304 42.4962 101.211 45.3975 101.077 49.4828C100.976 52.4482 101.755 55.9308 101.947 59.7228C102.128 63.2962 101.685 67.2162 99.296 71.0668C99.4951 71.3015 99.6871 71.5362 99.872 71.7708C106.192 62.1175 110.752 51.4295 113.179 42.3255C114.475 37.4188 115.168 32.9762 115.227 29.4562C115.28 25.9362 114.603 23.3815 113.739 22.3202C106.976 13.9308 97.8293 11.7975 90.1547 11.7388ZM66.0213 12.9868C60.064 12.9975 55.7867 14.7468 52.5493 17.3602C49.2053 20.0642 46.9653 23.7602 45.4933 27.5522C44.0685 31.3417 43.1974 35.3168 42.9067 39.3548L42.976 39.3175C44.7733 38.3362 47.136 37.3602 49.664 36.7948C52.1973 36.2295 54.9227 36.0535 57.392 36.9815C59.8613 37.9095 61.904 40.0962 62.6453 43.4135C66.192 59.3388 61.5413 65.2588 59.824 69.7228C59.1798 71.3429 58.6243 72.9969 58.16 74.6775C58.3733 74.6171 58.5884 74.5744 58.8053 74.5495C59.7422 74.4988 60.677 74.6821 61.5253 75.0828C63.2533 75.7762 64.4373 77.2268 65.0773 78.8908C65.2444 79.3317 65.3636 79.7939 65.4347 80.2775C65.5058 80.4802 65.5396 80.6882 65.536 80.9015C65.3443 86.9911 65.3657 93.0854 65.6 99.1735C65.7173 101.808 65.888 104.123 66.1067 105.952C66.32 107.776 66.6293 109.163 66.8267 109.632C67.4667 111.2 68.4107 113.248 70.1173 114.64C71.824 116.032 74.2613 116.955 78.7253 116.027C82.5973 115.221 84.9867 114.107 86.5867 112.491C88.176 110.885 89.1307 108.651 89.7387 105.221C90.6507 100.086 92.4853 85.2002 92.704 82.3948C92.608 80.2882 92.928 78.6615 93.6213 77.4242C94.3413 76.1548 95.4507 75.3762 96.4053 74.9548C96.8853 74.7415 97.3333 74.6028 97.7013 74.5015C97.3092 73.959 96.9001 73.429 96.4747 72.9122C95.0955 71.2988 93.9648 69.4886 93.12 67.5415C92.713 66.7405 92.2808 65.9525 91.824 65.1788C91.1573 64.0055 90.3093 62.5388 89.424 60.8908C87.648 57.5895 85.7173 53.5895 84.7147 49.6908C83.7173 45.8028 83.568 41.7762 86.128 38.9335C88.4 36.4108 92.3787 35.3655 98.3573 35.9522C98.1813 35.4402 98.0747 35.0135 97.776 34.3308C96.4268 31.2321 94.6632 28.3309 92.5333 25.7068C87.4667 19.4242 79.2693 13.1948 66.5973 12.9922H66.0213V12.9868ZM32.5493 13.2375C31.9093 13.2375 31.2693 13.2553 30.6293 13.2908C25.5413 13.5735 20.7307 15.0082 17.2907 18.5495C13.84 22.0855 11.5733 27.8882 12.064 37.4988C12.1653 39.3122 12.9813 44.4108 14.3787 50.4588C15.776 56.5175 17.76 63.6375 20.1387 69.9255C22.5173 76.2188 25.408 81.6962 28.1493 84.2882C29.5307 85.5842 30.7307 86.1068 31.8187 86.0642C32.912 86.0108 34.224 85.4028 35.8347 83.5308C38.768 80.0983 41.8095 76.7597 44.9547 73.5202C42.7324 71.6567 41.0217 69.2576 39.984 66.5495C38.9547 63.8671 38.6422 60.9628 39.0773 58.1228C39.5947 54.5068 39.664 51.1255 39.6053 48.4588C39.5413 45.8562 39.3493 44.1282 39.3493 43.0455V42.8962C39.3438 37.2596 40.3537 31.6681 42.3307 26.3895C43.7387 22.7522 45.84 19.0562 48.992 16.0642C45.8987 15.0775 40.4053 13.5735 34.4587 13.2908C33.8192 13.2566 33.179 13.2388 32.5387 13.2375H32.5493ZM95.024 39.0615C91.6053 39.1042 89.6853 39.9628 88.6773 41.0828C87.248 42.6722 87.1147 45.4562 88 48.8908C88.8853 52.3255 90.704 56.1708 92.4213 59.3602C93.2747 60.9602 94.1067 62.4002 94.7787 63.5628C95.456 64.7362 95.952 65.5682 96.2507 66.2828C96.5351 66.9264 96.8338 67.5148 97.1467 68.0482C98.4693 65.3335 98.7093 62.6722 98.5707 59.8935C98.3947 56.4588 97.5733 52.9442 97.696 49.3868C97.8293 45.2268 98.6773 42.5122 98.752 39.2962C97.515 39.1454 96.2702 39.0671 95.024 39.0615ZM53.5307 39.6215C52.4859 39.6294 51.4451 39.751 50.4267 39.9842C48.4018 40.4616 46.4477 41.2002 44.6133 42.1815C43.9982 42.5015 43.4115 42.8731 42.8533 43.2962L42.7467 43.3922C42.7787 44.1068 42.9227 45.8402 42.9867 48.3842C43.04 51.1735 42.976 54.7308 42.4213 58.5708C41.216 66.9335 47.4667 73.8562 54.816 73.8668C55.2427 72.1495 55.952 70.4108 56.656 68.5762C58.704 63.2268 62.7307 59.3282 59.3387 44.1015C58.784 41.6108 57.6853 40.6028 56.1707 40.0322C55.3225 39.7377 54.4282 39.5985 53.5307 39.6215ZM93.424 40.6188H93.68C94.0142 40.6295 94.3164 40.6651 94.5867 40.7255C94.8319 40.7748 95.0666 40.8669 95.28 40.9975C95.3771 41.0547 95.4611 41.1318 95.5263 41.2237C95.5916 41.3156 95.6367 41.4203 95.6587 41.5308V41.5735C95.6727 41.8079 95.6089 42.0404 95.4773 42.2348C95.3285 42.5038 95.1417 42.7498 94.9227 42.9655C94.4058 43.514 93.7243 43.8791 92.9813 44.0055C92.253 44.0918 91.5181 43.9118 90.912 43.4988C90.668 43.3377 90.4473 43.1439 90.256 42.9228C90.0942 42.7502 89.9834 42.536 89.936 42.3042C89.9244 42.1901 89.9374 42.0749 89.9742 41.9663C90.011 41.8577 90.0708 41.7583 90.1493 41.6748C90.3198 41.4959 90.5201 41.3479 90.7413 41.2375C91.5861 40.8497 92.5002 40.6356 93.4293 40.6082L93.424 40.6188ZM54.0213 41.4402C54.288 41.4402 54.5671 41.4615 54.8587 41.5042C55.6267 41.6108 56.3147 41.8082 56.8373 42.1015C57.0933 42.2331 57.3173 42.4055 57.5093 42.6188C57.6089 42.7362 57.6836 42.8659 57.7333 43.0082C57.7831 43.1504 57.7991 43.2979 57.7813 43.4508C57.7328 43.7336 57.601 43.9955 57.4027 44.2028C57.1963 44.4513 56.9536 44.667 56.6827 44.8428C56.0203 45.2939 55.2168 45.4891 54.4213 45.3922C53.6143 45.2619 52.8723 44.8703 52.3093 44.2775C52.0753 44.0388 51.8744 43.7697 51.712 43.4775C51.5459 43.2218 51.4725 42.9168 51.504 42.6135C51.5787 42.0802 52.032 41.8135 52.464 41.6535C52.9634 41.4951 53.4877 41.43 54.0107 41.4615L54.0213 41.4402ZM99.6747 77.3442H99.6587C98.9173 77.6108 98.3093 77.7175 97.792 77.9308C97.2766 78.122 96.8495 78.4959 96.592 78.9815C96.272 79.5415 96.0053 80.5388 96.0853 82.2348C96.3151 82.3865 96.567 82.5016 96.832 82.5762C97.6907 82.8322 99.136 83.0028 100.752 82.9762C103.963 82.9388 107.92 82.2135 110.021 81.2642C111.744 80.4855 113.344 79.4722 114.773 78.2562C107.749 79.6642 103.787 79.2908 101.349 78.3148C100.748 78.0695 100.184 77.7463 99.6747 77.3442ZM59.2053 77.7975H59.0987C58.832 77.8188 58.4427 77.9042 57.696 78.7148C55.936 80.6242 55.328 81.8188 53.8773 82.9388C52.4373 84.0588 50.5547 84.6508 46.8 85.3975C45.6107 85.6322 44.9333 85.8935 44.4747 86.1015C44.624 86.2188 44.608 86.2508 44.8267 86.3628C45.376 86.6562 46.0853 86.9122 46.6507 87.0562C48.2667 87.4455 50.9173 87.9042 53.6853 87.4455C56.4533 86.9868 59.328 85.7015 61.7813 82.3628C62.208 81.7868 62.2507 80.9335 61.904 80.0162C61.5467 79.1095 60.7787 78.3202 60.2347 78.0962C59.9101 77.9431 59.5622 77.8458 59.2053 77.8082V77.7975Z" fill="#E6EDF3"/>
</svg>
