<svg width="128" height="128" viewBox="0 0 128 128" fill="none" xmlns="http://www.w3.org/2000/svg">
<g clip-path="url(#clip0_134_20)">
<mask id="mask0_134_20" style="mask-type:luminance" maskUnits="userSpaceOnUse" x="0" y="0" width="128" height="128">
<path d="M0 0H128V128H0V0Z" fill="white"/>
</mask>
<g mask="url(#mask0_134_20)">
<path d="M63.5413 0C31.04 0 33.0667 14.1653 33.0667 14.1653L33.104 28.8427H64.112V33.248H20.8C20.8 33.248 0 30.8747 0 63.8347C0 96.7947 18.1493 95.6213 18.1493 95.6213H28.976V80.3307C28.976 80.3307 28.3947 62.0907 46.8427 62.0907H77.5947C77.5947 62.0907 94.8747 62.368 94.8747 45.3013V17.0773C94.8747 17.0773 97.4987 0 63.5413 0ZM46.4427 9.86667C49.5253 9.86667 52.0213 12.3733 52.0213 15.4773C52.0213 18.576 49.5253 21.0827 46.4427 21.0827C43.36 21.0827 40.864 18.576 40.864 15.4773C40.864 12.3733 43.3547 9.86667 46.4427 9.86667Z" fill="#E6EDF3"/>
<path d="M64.4641 128C96.9548 128 94.9281 113.835 94.9281 113.835L94.8908 99.1574H63.8828V94.7521H107.205C107.205 94.7521 128.005 97.1254 128.005 64.1654C128.005 31.2054 109.851 32.3787 109.851 32.3787H99.0241V47.6694C99.0241 47.6694 99.6054 65.9094 81.1574 65.9094H50.4108C50.4108 65.9094 33.1308 65.632 33.1308 82.6987V110.923C33.1308 110.923 30.5068 128 64.4641 128ZM81.5628 118.133C78.4748 118.133 75.9841 115.627 75.9841 112.523C75.9841 109.424 78.4748 106.917 81.5628 106.917C84.6454 106.917 87.1414 109.424 87.1414 112.523C87.1414 115.627 84.6454 118.133 81.5628 118.133Z" fill="#E6EDF3"/>
</g>
</g>
<defs>
<clipPath id="clip0_134_20">
<rect width="128" height="128" fill="white"/>
</clipPath>
</defs>
</svg>
