<svg width="128" height="128" viewBox="0 0 128 128" fill="none" xmlns="http://www.w3.org/2000/svg">
<g clip-path="url(#clip0_134_49)">
<mask id="mask0_134_49" style="mask-type:luminance" maskUnits="userSpaceOnUse" x="0" y="0" width="128" height="128">
<path d="M0 0H128V128H0V0Z" fill="white"/>
</mask>
<g mask="url(#mask0_134_49)">
<path d="M128 62.3413C128 53.8613 117.381 45.8239 101.099 40.8426C104.859 24.2506 103.189 11.0453 95.8293 6.81592C94.0455 5.81831 92.0274 5.31563 89.984 5.35992V11.1733C91.184 11.1733 92.1493 11.4133 92.96 11.8559C96.5067 13.8933 98.048 21.6373 96.848 31.6053C96.56 34.0586 96.0907 36.6399 95.5147 39.2746C90.0611 37.9651 84.5274 37.0155 78.9493 36.4319C75.6241 31.8482 71.9984 27.4902 68.096 23.3866C76.6027 15.4826 84.5867 11.1519 90.016 11.1519V5.33325C82.8373 5.33325 73.4453 10.4479 63.9467 19.3173C54.4533 10.5066 45.056 5.43992 37.8827 5.43992V11.2533C43.2853 11.2533 51.296 15.5626 59.8027 23.4133C56.1493 27.2533 52.496 31.6053 49.024 36.4319C43.4341 37.0072 37.8904 37.9659 32.432 39.3013C31.8347 36.6915 31.3813 34.1706 31.072 31.7386C29.8453 21.7653 31.36 14.0213 34.8853 11.9626C35.664 11.4933 36.6827 11.2799 37.8827 11.2799V5.46659C35.696 5.46659 33.7067 5.93592 31.9893 6.92259C24.656 11.1519 23.0133 24.3253 26.7947 40.8693C10.5653 45.8826 0 53.8879 0 62.3413C0 70.8213 10.6187 78.8586 26.9013 83.8346C23.1413 100.432 24.8107 113.637 32.1707 117.861C33.8667 118.853 35.8507 119.323 38.0373 119.323C45.216 119.323 54.608 114.208 64.1067 105.339C73.6 114.155 82.992 119.216 90.1707 119.216C92.2293 119.254 94.2618 118.75 96.064 117.755C103.397 113.531 105.04 100.357 101.259 83.8133C117.435 78.8319 128 70.7946 128 62.3413ZM94.0267 44.9386C93.0134 48.4259 91.8388 51.8642 90.5067 55.2426C88.3298 50.9993 85.9355 46.8712 83.3333 42.8746C87.0453 43.4186 90.6116 44.1066 94.032 44.9386M82.0853 72.7253C80.1315 76.1355 78.0337 79.4612 75.7973 82.6933C67.9693 83.3819 60.0963 83.3909 52.2667 82.7199C47.7767 76.3043 43.8492 69.5128 40.528 62.4213C43.8417 55.3117 47.7526 48.4962 52.2187 42.0479C60.0448 41.3578 67.916 41.3471 75.744 42.0159C77.9129 45.127 80.0178 48.4337 82.0587 51.9359C84.0391 55.3528 85.8489 58.8124 87.488 62.3146C85.8292 65.8567 84.0269 69.3298 82.0853 72.7253ZM90.5067 69.3333C91.9147 72.8319 93.12 76.3252 94.1067 79.7173C90.6933 80.5546 87.088 81.2586 83.36 81.8026C85.9483 77.7677 88.3335 73.6061 90.5067 69.3333ZM64.0533 97.1732C61.6213 94.663 59.2036 91.879 56.8 88.8213C59.1467 88.9279 61.5467 89.0079 63.9733 89.0079C66.4302 89.0115 68.848 88.9492 71.2267 88.8213C68.88 91.8773 66.4533 94.6666 64.0533 97.1732ZM44.64 81.8026C41.0438 81.2824 37.4738 80.5954 33.9413 79.7439C34.9067 76.3786 36.1067 72.9066 37.4613 69.4399C38.5333 71.5199 39.6587 73.6106 40.8853 75.7013C42.112 77.7884 43.3636 79.8221 44.64 81.8026ZM63.92 27.5093C66.352 30.0195 68.7698 32.8035 71.1733 35.8613C68.8267 35.7546 66.4267 35.6746 64 35.6746C61.5431 35.671 59.1253 35.7333 56.7467 35.8613C59.0933 32.8053 61.52 30.0159 63.92 27.5093ZM44.6133 42.8799C42.0258 46.9061 39.6406 51.0588 37.4667 55.3226C36.0975 51.9223 34.896 48.4567 33.8667 44.9386C37.28 44.1279 40.8853 43.4239 44.6133 42.8799ZM21.0027 75.5413C11.7653 71.6053 5.792 66.4373 5.792 62.3413C5.792 58.2453 11.7653 53.0506 21.0027 49.1413C23.2427 48.1759 25.696 47.3119 28.2293 46.5066C29.7173 51.6159 31.6747 56.9386 34.096 62.3946C31.8074 67.5252 29.874 72.807 28.3093 78.2026C25.8321 77.4344 23.3936 76.5463 21.0027 75.5413ZM35.04 112.821C31.4933 110.795 29.952 103.04 31.152 93.0773C31.44 90.6239 31.9093 88.0373 32.4853 85.4026C37.5947 86.6559 43.1787 87.6213 49.0507 88.2506C52.3759 92.8343 56.0016 97.1923 59.904 101.296C51.3973 109.2 43.4133 113.531 37.984 113.531C36.9605 113.535 35.9509 113.293 35.04 112.827M96.928 92.9492C98.1547 102.917 96.64 110.667 93.1147 112.725C92.336 113.195 91.3173 113.403 90.1173 113.403C84.7147 113.403 76.704 109.099 68.1973 101.243C72.0851 97.1577 75.6865 92.8096 78.976 88.2292C84.5659 87.654 90.1096 86.6953 95.568 85.3599C96.176 87.991 96.6293 90.5208 96.928 92.9492ZM106.971 75.5466C104.731 76.5119 102.277 77.3759 99.744 78.1813C98.1489 72.759 96.1889 67.4509 93.8773 62.2933C96.2773 56.8693 98.2027 51.5732 99.664 46.4853C102.252 47.2924 104.697 48.1795 106.997 49.1466C116.235 53.0826 122.208 58.2506 122.208 62.3466C122.181 66.4426 116.208 71.6373 106.971 75.5466Z" fill="#E6EDF3"/>
<path d="M63.9734 74.2667C67.1362 74.2667 70.1695 73.0103 72.4059 70.7738C74.6423 68.5374 75.8988 65.5041 75.8988 62.3413C75.8988 59.1786 74.6423 56.1453 72.4059 53.9089C70.1695 51.6724 67.1362 50.416 63.9734 50.416C60.8106 50.416 57.7774 51.6724 55.5409 53.9089C53.3045 56.1453 52.0481 59.1786 52.0481 62.3413C52.0481 65.5041 53.3045 68.5374 55.5409 70.7738C57.7774 73.0103 60.8106 74.2667 63.9734 74.2667Z" fill="#E6EDF3"/>
</g>
</g>
<defs>
<clipPath id="clip0_134_49">
<rect width="128" height="128" fill="white"/>
</clipPath>
</defs>
</svg>
