<svg width="115" height="128" viewBox="0 0 115 128" fill="none" xmlns="http://www.w3.org/2000/svg">
<g clip-path="url(#clip0_134_101)">
<path d="M57.1255 58.2677L53.5185 69.7052C51.5953 76.8052 51.7588 79.0447 52.7342 80.6967C52.975 81.1027 53.6335 82.4317 54.5537 85.9817C55.8897 91.1202 57.0662 98.8785 57.095 99.2497C56.9018 103.992 57.0063 109.017 57.3898 113.828H9.78675C4.40425 113.828 0 109.424 0 104.041V15.47C0 10.0875 4.404 5.68245 9.78675 5.68245H83.0387C71.8197 17.5837 60.7035 40.1665 57.1255 58.2677ZM108.835 2.78395C122.258 14.7587 108.929 42.1345 96.6933 61.4047C87.7968 64.264 77.4273 70.5787 77.4273 70.5787C77.4273 70.5787 78.2897 70.1207 81.491 68.778C83.661 67.8657 90.1405 66.3252 94.0863 65.4255C87.499 75.357 81.8623 82.3085 81.8623 82.3085C81.8623 82.3085 70.3698 86.9787 66.8155 97.8435C68.8755 86.2542 72.2937 74.1585 77.1175 61.2685C81.4255 49.758 95.8165 18.6742 106.45 9.07145C94.7835 18.3697 82.037 37.8395 72.8495 62.106C67.4118 78.181 64.4688 93.604 63.9895 106.393C63.6727 114.76 64.396 122.015 66.1768 127.551L65.3535 128C63.6068 123.467 62.0037 115.501 62.3872 99.1762C62.3298 98.448 62.2955 97.9747 62.2955 97.9747C62.2955 97.9747 61.235 90.8327 59.7098 84.966C59.0343 82.3617 58.2653 80.007 57.458 78.6422C57.042 77.938 57.503 75.0452 58.664 70.7605C60.63 74.1834 62.751 77.8892 63.5658 80.9212C63.5658 80.9212 61.9948 72.8387 59.417 68.122C59.982 66.2152 60.657 64.1077 61.4207 61.8545C63.322 65.1795 65.261 68.3432 66.0345 71.512C65.1885 67.4637 64.0433 63.432 62.2593 59.4352C65.5017 42.5612 75.939 20.4662 87.1833 8.5377C93.185 2.13345 101.456 -3.5983 108.835 2.78395Z" fill="#E6EDF3"/>
</g>
<defs>
<clipPath id="clip0_134_101">
<rect width="114.5" height="128" fill="white"/>
</clipPath>
</defs>
</svg>
