<svg width="128" height="128" viewBox="0 0 128 128" fill="none" xmlns="http://www.w3.org/2000/svg">
<path d="M63.9998 32C49.7598 32 40.9065 39.0933 37.3332 53.3333C42.6665 46.24 48.9065 43.5733 55.9998 45.3333C60.0532 46.3467 62.9865 49.28 66.1865 52.5333C71.4132 57.8667 77.3332 64 90.6665 64C104.907 64 113.76 56.9067 117.333 42.6667C112 49.76 105.76 52.4267 98.6665 50.6667C94.6132 49.6533 91.7332 46.72 88.4798 43.4667C83.2532 38.1333 77.3332 32 63.9998 32ZM37.3332 64C23.0932 64 14.2398 71.0933 10.6665 85.3333C15.9998 78.24 22.2398 75.5733 29.3332 77.3333C33.3865 78.3467 36.2665 81.28 39.5198 84.5333C44.7465 89.8667 50.6665 96 63.9998 96C78.2398 96 87.0932 88.9067 90.6665 74.6667C85.3332 81.76 79.0932 84.4267 71.9998 82.6667C67.9465 81.6533 65.0665 78.72 61.8132 75.4667C56.5865 70.1333 50.6665 64 37.3332 64Z" fill="#E6EDF3"/>
</svg>
