<svg width="128" height="128" viewBox="0 0 128 128" fill="none" xmlns="http://www.w3.org/2000/svg">
<g clip-path="url(#clip0_134_28)">
<mask id="mask0_134_28" style="mask-type:luminance" maskUnits="userSpaceOnUse" x="0" y="0" width="128" height="128">
<path d="M0 0H128V128H0V0Z" fill="white"/>
</mask>
<g mask="url(#mask0_134_28)">
<path d="M124.955 1.87152e-05H3.04C2.64034 1.81001e-05 2.24459 0.0788264 1.87541 0.231934C1.50624 0.385042 1.17087 0.609444 0.888512 0.892299C0.606152 1.17515 0.382339 1.51091 0.229878 1.88036C0.077418 2.2498 -0.000696484 2.64568 4.68702e-06 3.04535V124.96C-0.000697889 125.36 0.0775925 125.756 0.230386 126.126C0.383179 126.496 0.60747 126.832 0.890395 127.115C1.17332 127.398 1.50931 127.622 1.87911 127.775C2.2489 127.928 2.64522 128.006 3.04534 128.005H124.96C125.36 128.006 125.756 127.928 126.126 127.775C126.496 127.622 126.832 127.398 127.115 127.115C127.398 126.832 127.622 126.496 127.775 126.126C127.928 125.756 128.006 125.36 128.005 124.96V3.04002C128.005 2.6399 127.926 2.24372 127.773 1.87419C127.619 1.50467 127.395 1.16906 127.111 0.886634C126.828 0.604204 126.491 0.380502 126.121 0.228356C125.751 0.0762106 125.355 -0.00138521 124.955 1.87152e-05ZM76.192 68.4054H60.9547V115.808H48.7627V68.4054H33.5253V57.904H76.192V68.4054ZM79.6053 113.099V100.432C79.6053 100.432 86.528 105.648 94.832 105.648C103.136 105.648 102.816 100.219 102.816 99.472C102.816 91.5947 79.2853 91.5947 79.2853 74.1334C79.2853 50.3894 113.573 59.76 113.573 59.76L113.147 71.0454C113.147 71.0454 107.397 67.2107 100.901 67.2107C94.4053 67.2107 92.064 70.304 92.064 73.6C92.064 82.1174 115.808 81.2694 115.808 98.4107C115.808 124.811 79.6053 113.104 79.6053 113.104" fill="#E6EDF3"/>
</g>
</g>
<defs>
<clipPath id="clip0_134_28">
<rect width="128" height="128" fill="white"/>
</clipPath>
</defs>
</svg>
