<svg width="256" height="256" viewBox="0 0 256 256" fill="none" xmlns="http://www.w3.org/2000/svg">
<path fill-rule="evenodd" clip-rule="evenodd" d="M87.424 33.664C67.5134 42.2617 50.8213 56.9195 39.7227 75.552H71.6747C74.1813 64.448 77.488 54.24 81.4667 45.2747C83.2251 41.292 85.2143 37.4151 87.424 33.664ZM25.3333 128C25.3333 120.053 26.24 112.315 27.9467 104.885H67.1253C66.434 112.571 66.0906 120.284 66.096 128C66.096 135.872 66.4427 143.6 67.1253 151.104H27.9413C26.2022 143.526 25.3273 135.775 25.3333 128ZM39.7173 180.437C50.8157 199.075 67.5099 213.736 87.424 222.336C85.2143 218.585 83.2251 214.708 81.4667 210.725C77.4827 201.76 74.1813 191.547 71.6747 180.437H39.7173ZM99.1253 180.437C100.846 187.092 103.091 193.599 105.84 199.899C109.781 208.773 114.128 215.125 118.288 219.083C122.373 222.976 125.632 224 127.995 224C130.357 224 133.621 222.976 137.712 219.083C141.867 215.125 146.219 208.773 150.16 199.899C152.704 194.165 154.971 187.632 156.875 180.437H99.1253ZM184.325 180.437C181.819 191.547 178.512 201.76 174.528 210.725C172.77 214.708 170.78 218.585 168.571 222.336C188.487 213.737 205.183 199.076 216.283 180.437H184.325ZM228.059 151.104H188.875C189.566 143.422 189.909 135.713 189.904 128C189.904 120.123 189.552 112.395 188.875 104.885H228.053C229.76 112.315 230.667 120.053 230.667 128C230.667 135.947 229.76 143.68 228.053 151.104M162.08 151.104H93.9093C93.1387 143.427 92.756 135.716 92.7627 128C92.7627 120 93.1627 112.267 93.9147 104.885H162.08C162.827 112.267 163.232 120.005 163.232 128C163.232 135.995 162.832 143.723 162.08 151.104ZM184.32 75.552H216.272C205.172 56.9186 188.478 42.2607 168.565 33.664C170.731 37.312 172.715 41.2107 174.523 45.2747C178.507 54.2347 181.808 64.448 184.315 75.552M105.829 56.1013C103.081 62.3975 100.836 68.9014 99.1147 75.552H156.859C155.139 68.9015 152.896 62.3977 150.149 56.1013C146.203 47.2267 141.856 40.8747 137.701 36.9173C133.621 33.024 130.363 32 128 32C125.637 32 122.373 33.024 118.288 36.9173C114.128 40.8747 109.781 47.2267 105.84 56.1013M128 4C59.52 4 4 59.52 4 128C4 196.48 59.52 252 128 252C196.48 252 252 196.48 252 128C252 59.52 196.48 4 128 4Z" fill="#E6EDF3"/>
</svg>
